<mxfile host="app.diagrams.net" modified="2021-01-19T13:21:51.280Z" agent="5.0 (Windows)" etag="IBXFYbs20d4CZo4VTye7" version="14.1.8" type="github">
  <diagram id="C5RBs43oDa-KdzZeNtuy" name="Page-1">
    <mxGraphModel dx="1673" dy="898" grid="1" gridSize="10" guides="1" tooltips="1" connect="1" arrows="1" fold="1" page="1" pageScale="1" pageWidth="827" pageHeight="1169" math="0" shadow="0">
      <root>
        <mxCell id="WIyWlLk6GJQsqaUBKTNV-0" />
        <mxCell id="WIyWlLk6GJQsqaUBKTNV-1" parent="WIyWlLk6GJQsqaUBKTNV-0" />
        <mxCell id="pySExn_BdIesOUWfmP66-4" value="&lt;div align=&quot;justify&quot;&gt;&lt;br&gt;&lt;/div&gt;" style="html=1;dropTarget=0;fontStyle=1" vertex="1" parent="WIyWlLk6GJQsqaUBKTNV-1">
          <mxGeometry x="50" y="260" width="520" height="400" as="geometry" />
        </mxCell>
        <mxCell id="pySExn_BdIesOUWfmP66-5" value="" style="shape=module;jettyWidth=8;jettyHeight=4;" vertex="1" parent="pySExn_BdIesOUWfmP66-4">
          <mxGeometry x="1" width="20" height="20" relative="1" as="geometry">
            <mxPoint x="-27" y="7" as="offset" />
          </mxGeometry>
        </mxCell>
        <mxCell id="pySExn_BdIesOUWfmP66-7" value="&lt;div&gt;«Component»&lt;/div&gt;&lt;div&gt;客户端接口&lt;/div&gt;" style="html=1;dropTarget=0;" vertex="1" parent="WIyWlLk6GJQsqaUBKTNV-1">
          <mxGeometry x="100" y="360" width="140" height="60" as="geometry" />
        </mxCell>
        <mxCell id="pySExn_BdIesOUWfmP66-8" value="" style="shape=module;jettyWidth=8;jettyHeight=4;" vertex="1" parent="pySExn_BdIesOUWfmP66-7">
          <mxGeometry x="1" width="20" height="20" relative="1" as="geometry">
            <mxPoint x="-27" y="7" as="offset" />
          </mxGeometry>
        </mxCell>
        <mxCell id="pySExn_BdIesOUWfmP66-9" value="&lt;div&gt;«Component»&lt;/div&gt;&lt;div&gt;实时数据采集&lt;br&gt;&lt;/div&gt;" style="text;html=1;strokeColor=none;fillColor=none;align=center;verticalAlign=middle;whiteSpace=wrap;rounded=0;" vertex="1" parent="WIyWlLk6GJQsqaUBKTNV-1">
          <mxGeometry x="290" y="290" width="40" height="20" as="geometry" />
        </mxCell>
        <mxCell id="pySExn_BdIesOUWfmP66-11" value="&lt;div&gt;«Component»&lt;/div&gt;&lt;div&gt;采集点&lt;br&gt;&lt;/div&gt;" style="html=1;dropTarget=0;" vertex="1" parent="WIyWlLk6GJQsqaUBKTNV-1">
          <mxGeometry x="360" y="510" width="140" height="60" as="geometry" />
        </mxCell>
        <mxCell id="pySExn_BdIesOUWfmP66-12" value="" style="shape=module;jettyWidth=8;jettyHeight=4;" vertex="1" parent="pySExn_BdIesOUWfmP66-11">
          <mxGeometry x="1" width="20" height="20" relative="1" as="geometry">
            <mxPoint x="-27" y="7" as="offset" />
          </mxGeometry>
        </mxCell>
        <mxCell id="pySExn_BdIesOUWfmP66-13" value="&lt;div&gt;«Component»&lt;/div&gt;&lt;div&gt;&lt;br&gt;&lt;/div&gt;&lt;div&gt;服务器端&lt;br&gt;&lt;/div&gt;" style="html=1;dropTarget=0;" vertex="1" parent="WIyWlLk6GJQsqaUBKTNV-1">
          <mxGeometry x="360" y="360" width="140" height="60" as="geometry" />
        </mxCell>
        <mxCell id="pySExn_BdIesOUWfmP66-14" value="" style="shape=module;jettyWidth=8;jettyHeight=4;" vertex="1" parent="pySExn_BdIesOUWfmP66-13">
          <mxGeometry x="1" width="20" height="20" relative="1" as="geometry">
            <mxPoint x="-27" y="7" as="offset" />
          </mxGeometry>
        </mxCell>
        <mxCell id="pySExn_BdIesOUWfmP66-21" value="" style="rounded=0;orthogonalLoop=1;jettySize=auto;html=1;endArrow=none;endFill=0;exitX=1;exitY=0.5;exitDx=0;exitDy=0;" edge="1" target="pySExn_BdIesOUWfmP66-23" parent="WIyWlLk6GJQsqaUBKTNV-1" source="pySExn_BdIesOUWfmP66-36">
          <mxGeometry relative="1" as="geometry">
            <mxPoint x="290" y="390" as="sourcePoint" />
          </mxGeometry>
        </mxCell>
        <mxCell id="pySExn_BdIesOUWfmP66-22" value="" style="rounded=0;orthogonalLoop=1;jettySize=auto;html=1;endArrow=halfCircle;endFill=0;entryX=0.5;entryY=0.5;entryDx=0;entryDy=0;endSize=6;strokeWidth=1;exitX=0;exitY=0.5;exitDx=0;exitDy=0;" edge="1" target="pySExn_BdIesOUWfmP66-23" parent="WIyWlLk6GJQsqaUBKTNV-1" source="pySExn_BdIesOUWfmP66-45">
          <mxGeometry relative="1" as="geometry">
            <mxPoint x="350" y="390" as="sourcePoint" />
          </mxGeometry>
        </mxCell>
        <mxCell id="pySExn_BdIesOUWfmP66-23" value="" style="ellipse;whiteSpace=wrap;html=1;fontFamily=Helvetica;fontSize=12;fontColor=#000000;align=center;strokeColor=#000000;fillColor=#ffffff;points=[];aspect=fixed;resizable=0;" vertex="1" parent="WIyWlLk6GJQsqaUBKTNV-1">
          <mxGeometry x="305" y="385" width="10" height="10" as="geometry" />
        </mxCell>
        <mxCell id="pySExn_BdIesOUWfmP66-29" value="" style="whiteSpace=wrap;html=1;aspect=fixed;" vertex="1" parent="WIyWlLk6GJQsqaUBKTNV-1">
          <mxGeometry x="155" y="255" width="10" height="10" as="geometry" />
        </mxCell>
        <mxCell id="pySExn_BdIesOUWfmP66-30" value="" style="endArrow=block;dashed=1;endFill=0;endSize=12;html=1;entryX=0.5;entryY=1;entryDx=0;entryDy=0;exitX=0.437;exitY=0.015;exitDx=0;exitDy=0;exitPerimeter=0;" edge="1" parent="WIyWlLk6GJQsqaUBKTNV-1" source="pySExn_BdIesOUWfmP66-7" target="pySExn_BdIesOUWfmP66-29">
          <mxGeometry width="160" relative="1" as="geometry">
            <mxPoint x="80" y="310" as="sourcePoint" />
            <mxPoint x="240" y="310" as="targetPoint" />
          </mxGeometry>
        </mxCell>
        <mxCell id="pySExn_BdIesOUWfmP66-31" value="" style="ellipse;whiteSpace=wrap;html=1;aspect=fixed;" vertex="1" parent="WIyWlLk6GJQsqaUBKTNV-1">
          <mxGeometry x="155" y="180" width="10" height="10" as="geometry" />
        </mxCell>
        <mxCell id="pySExn_BdIesOUWfmP66-32" value="" style="line;strokeWidth=2;direction=south;html=1;" vertex="1" parent="WIyWlLk6GJQsqaUBKTNV-1">
          <mxGeometry x="155" y="190" width="10" height="65" as="geometry" />
        </mxCell>
        <mxCell id="pySExn_BdIesOUWfmP66-33" value="数据查看" style="text;html=1;strokeColor=none;fillColor=none;align=center;verticalAlign=middle;whiteSpace=wrap;rounded=0;" vertex="1" parent="WIyWlLk6GJQsqaUBKTNV-1">
          <mxGeometry x="135" y="190" width="50" height="20" as="geometry" />
        </mxCell>
        <mxCell id="pySExn_BdIesOUWfmP66-34" value="&lt;font style=&quot;font-size: 11px&quot;&gt;发送数据视图&lt;br&gt;&lt;/font&gt;" style="text;html=1;strokeColor=none;fillColor=none;align=center;verticalAlign=middle;whiteSpace=wrap;rounded=0;" vertex="1" parent="WIyWlLk6GJQsqaUBKTNV-1">
          <mxGeometry x="122.5" y="230" width="75" height="20" as="geometry" />
        </mxCell>
        <mxCell id="pySExn_BdIesOUWfmP66-36" value="" style="whiteSpace=wrap;html=1;aspect=fixed;" vertex="1" parent="WIyWlLk6GJQsqaUBKTNV-1">
          <mxGeometry x="235" y="385" width="10" height="10" as="geometry" />
        </mxCell>
        <mxCell id="pySExn_BdIesOUWfmP66-39" value="" style="rounded=0;orthogonalLoop=1;jettySize=auto;html=1;endArrow=halfCircle;endFill=0;entryX=0.5;entryY=0.5;entryDx=0;entryDy=0;endSize=6;strokeWidth=1;exitX=0;exitY=0.5;exitDx=0;exitDy=0;" edge="1" parent="WIyWlLk6GJQsqaUBKTNV-1" source="pySExn_BdIesOUWfmP66-13">
          <mxGeometry relative="1" as="geometry">
            <mxPoint x="360" y="390" as="sourcePoint" />
            <mxPoint x="360" y="390" as="targetPoint" />
          </mxGeometry>
        </mxCell>
        <mxCell id="pySExn_BdIesOUWfmP66-45" value="" style="whiteSpace=wrap;html=1;aspect=fixed;" vertex="1" parent="WIyWlLk6GJQsqaUBKTNV-1">
          <mxGeometry x="356" y="385" width="10" height="10" as="geometry" />
        </mxCell>
        <mxCell id="pySExn_BdIesOUWfmP66-46" value="" style="whiteSpace=wrap;html=1;aspect=fixed;" vertex="1" parent="WIyWlLk6GJQsqaUBKTNV-1">
          <mxGeometry x="425" y="416" width="10" height="10" as="geometry" />
        </mxCell>
        <mxCell id="pySExn_BdIesOUWfmP66-75" value="" style="rounded=0;orthogonalLoop=1;jettySize=auto;html=1;endArrow=none;endFill=0;exitX=0.5;exitY=0;exitDx=0;exitDy=0;" edge="1" target="pySExn_BdIesOUWfmP66-77" parent="WIyWlLk6GJQsqaUBKTNV-1" source="pySExn_BdIesOUWfmP66-11">
          <mxGeometry relative="1" as="geometry">
            <mxPoint x="310" y="455" as="sourcePoint" />
          </mxGeometry>
        </mxCell>
        <mxCell id="pySExn_BdIesOUWfmP66-76" value="" style="rounded=0;orthogonalLoop=1;jettySize=auto;html=1;endArrow=halfCircle;endFill=0;entryX=0.5;entryY=1;entryDx=0;entryDy=0;endSize=6;strokeWidth=1;exitX=0.5;exitY=1;exitDx=0;exitDy=0;" edge="1" parent="WIyWlLk6GJQsqaUBKTNV-1" source="pySExn_BdIesOUWfmP66-46">
          <mxGeometry relative="1" as="geometry">
            <mxPoint x="350" y="455" as="sourcePoint" />
            <mxPoint x="430" y="470" as="targetPoint" />
          </mxGeometry>
        </mxCell>
        <mxCell id="pySExn_BdIesOUWfmP66-77" value="" style="ellipse;whiteSpace=wrap;html=1;fontFamily=Helvetica;fontSize=12;fontColor=#000000;align=center;strokeColor=#000000;fillColor=#ffffff;points=[];aspect=fixed;resizable=0;" vertex="1" parent="WIyWlLk6GJQsqaUBKTNV-1">
          <mxGeometry x="425" y="465" width="10" height="10" as="geometry" />
        </mxCell>
        <mxCell id="pySExn_BdIesOUWfmP66-80" value="数据传送" style="text;html=1;strokeColor=none;fillColor=none;align=center;verticalAlign=middle;whiteSpace=wrap;rounded=0;" vertex="1" parent="WIyWlLk6GJQsqaUBKTNV-1">
          <mxGeometry x="285" y="400" width="50" height="20" as="geometry" />
        </mxCell>
        <mxCell id="pySExn_BdIesOUWfmP66-108" value="数据传送" style="text;html=1;strokeColor=none;fillColor=none;align=center;verticalAlign=middle;whiteSpace=wrap;rounded=0;" vertex="1" parent="WIyWlLk6GJQsqaUBKTNV-1">
          <mxGeometry x="405" y="475" width="50" height="20" as="geometry" />
        </mxCell>
        <mxCell id="pySExn_BdIesOUWfmP66-109" value="" style="ellipse;whiteSpace=wrap;html=1;aspect=fixed;" vertex="1" parent="WIyWlLk6GJQsqaUBKTNV-1">
          <mxGeometry x="155" y="180" width="10" height="10" as="geometry" />
        </mxCell>
        <mxCell id="pySExn_BdIesOUWfmP66-112" value="" style="whiteSpace=wrap;html=1;aspect=fixed;" vertex="1" parent="WIyWlLk6GJQsqaUBKTNV-1">
          <mxGeometry x="217.5" y="254.1" width="10" height="10" as="geometry" />
        </mxCell>
        <mxCell id="pySExn_BdIesOUWfmP66-113" value="" style="endArrow=block;dashed=1;endFill=0;endSize=12;html=1;entryX=0.5;entryY=1;entryDx=0;entryDy=0;exitX=0.437;exitY=0.015;exitDx=0;exitDy=0;exitPerimeter=0;" edge="1" parent="WIyWlLk6GJQsqaUBKTNV-1" target="pySExn_BdIesOUWfmP66-112">
          <mxGeometry width="160" relative="1" as="geometry">
            <mxPoint x="223.68" y="360" as="sourcePoint" />
            <mxPoint x="302.5" y="309.1" as="targetPoint" />
          </mxGeometry>
        </mxCell>
        <mxCell id="pySExn_BdIesOUWfmP66-114" value="" style="ellipse;whiteSpace=wrap;html=1;aspect=fixed;" vertex="1" parent="WIyWlLk6GJQsqaUBKTNV-1">
          <mxGeometry x="217.5" y="179.1" width="10" height="10" as="geometry" />
        </mxCell>
        <mxCell id="pySExn_BdIesOUWfmP66-115" value="异常接口" style="text;html=1;strokeColor=none;fillColor=none;align=center;verticalAlign=middle;whiteSpace=wrap;rounded=0;" vertex="1" parent="WIyWlLk6GJQsqaUBKTNV-1">
          <mxGeometry x="197.5" y="229.1" width="50" height="20" as="geometry" />
        </mxCell>
        <mxCell id="pySExn_BdIesOUWfmP66-116" value="" style="line;strokeWidth=2;direction=south;html=1;" vertex="1" parent="WIyWlLk6GJQsqaUBKTNV-1">
          <mxGeometry x="217.5" y="190" width="10" height="64.1" as="geometry" />
        </mxCell>
        <mxCell id="pySExn_BdIesOUWfmP66-117" value="异常查看" style="text;html=1;strokeColor=none;fillColor=none;align=center;verticalAlign=middle;whiteSpace=wrap;rounded=0;" vertex="1" parent="WIyWlLk6GJQsqaUBKTNV-1">
          <mxGeometry x="197.5" y="189.1" width="50" height="20" as="geometry" />
        </mxCell>
        <mxCell id="pySExn_BdIesOUWfmP66-119" value="" style="whiteSpace=wrap;html=1;aspect=fixed;" vertex="1" parent="WIyWlLk6GJQsqaUBKTNV-1">
          <mxGeometry x="425" y="654" width="10" height="10" as="geometry" />
        </mxCell>
        <mxCell id="pySExn_BdIesOUWfmP66-121" value="" style="ellipse;whiteSpace=wrap;html=1;aspect=fixed;" vertex="1" parent="WIyWlLk6GJQsqaUBKTNV-1">
          <mxGeometry x="425" y="740" width="10" height="10" as="geometry" />
        </mxCell>
        <mxCell id="pySExn_BdIesOUWfmP66-122" value="" style="line;strokeWidth=2;direction=south;html=1;" vertex="1" parent="WIyWlLk6GJQsqaUBKTNV-1">
          <mxGeometry x="425" y="664" width="10" height="76" as="geometry" />
        </mxCell>
        <mxCell id="pySExn_BdIesOUWfmP66-125" value="" style="endArrow=block;dashed=1;endFill=0;endSize=12;html=1;entryX=0.5;entryY=0;entryDx=0;entryDy=0;exitX=0.5;exitY=1;exitDx=0;exitDy=0;" edge="1" parent="WIyWlLk6GJQsqaUBKTNV-1" source="pySExn_BdIesOUWfmP66-11" target="pySExn_BdIesOUWfmP66-119">
          <mxGeometry width="160" relative="1" as="geometry">
            <mxPoint x="360" y="610" as="sourcePoint" />
            <mxPoint x="520" y="610" as="targetPoint" />
          </mxGeometry>
        </mxCell>
        <mxCell id="pySExn_BdIesOUWfmP66-126" value="收集采集点数据" style="text;html=1;strokeColor=none;fillColor=none;align=center;verticalAlign=middle;whiteSpace=wrap;rounded=0;" vertex="1" parent="WIyWlLk6GJQsqaUBKTNV-1">
          <mxGeometry x="392.5" y="670" width="87.5" height="20" as="geometry" />
        </mxCell>
        <mxCell id="pySExn_BdIesOUWfmP66-127" value="采集点数据" style="text;html=1;strokeColor=none;fillColor=none;align=center;verticalAlign=middle;whiteSpace=wrap;rounded=0;" vertex="1" parent="WIyWlLk6GJQsqaUBKTNV-1">
          <mxGeometry x="392.5" y="720" width="87.5" height="20" as="geometry" />
        </mxCell>
      </root>
    </mxGraphModel>
  </diagram>
</mxfile>
